<svg width="65" height="46" viewBox="0 0 65 46" fill="none" xmlns="http://www.w3.org/2000/svg">
<g clip-path="url(#clip0_601_50273)">
<path d="M32.5757 12.3762C23.8215 12.3762 16.7236 16.9678 16.7236 22.6303C16.7236 28.2949 23.8215 32.8887 32.5757 32.8887C41.3299 32.8887 48.4278 28.297 48.4278 22.6303C48.4278 16.9637 41.3299 12.3762 32.5757 12.3762ZM32.5757 28.4866C31.2736 28.4866 30.2111 25.922 30.1445 22.6949C30.9278 22.7637 31.7424 22.8012 32.5757 22.8012C33.409 22.8012 34.2236 22.7637 35.007 22.6949C34.9403 25.9199 33.8778 28.4866 32.5757 28.4866ZM30.3049 20.1324C30.659 17.8512 31.5424 16.2324 32.5757 16.2324C33.609 16.2324 34.4924 17.8512 34.8465 20.1324C34.1195 20.197 33.3611 20.2324 32.5757 20.2324C31.7903 20.2324 31.032 20.197 30.3049 20.1324ZM32.5757 13.8595C30.8757 13.8595 29.4257 16.4053 28.8903 19.9595C25.6674 19.4574 23.4174 18.3116 23.4174 16.9803C23.4174 15.1845 27.5174 13.7283 32.5757 13.7283C37.634 13.7283 41.734 15.1845 41.734 16.9803C41.734 18.3116 39.484 19.4574 36.2611 19.9595C35.7257 16.4053 34.2757 13.8595 32.5757 13.8595ZM18.9965 22.247C18.9965 20.5095 19.6653 18.8783 20.8299 17.4783C20.8174 17.5762 20.809 17.6762 20.809 17.7762C20.809 19.9658 24.0924 21.8324 28.6736 22.5199C28.6695 22.6783 28.6695 22.8387 28.6695 22.9991C28.6695 27.0803 29.8132 30.5366 31.3945 31.7095C24.4465 31.2908 18.9965 27.2137 18.9965 22.247ZM33.757 31.7095C35.3382 30.5366 36.482 27.0803 36.482 22.9991C36.482 22.8366 36.4799 22.6783 36.4778 22.5199C41.057 21.8324 44.3424 19.9678 44.3424 17.7762C44.3424 17.6762 44.334 17.5762 44.3215 17.4783C45.4861 18.8824 46.1549 20.5095 46.1549 22.247C46.1549 27.2137 40.7049 31.2908 33.757 31.7095Z" fill="#282830"/>
</g>
<defs>
<clipPath id="clip0_601_50273">
<rect width="32" height="20.8" fill="white" transform="translate(16.5757 12.2324)"/>
</clipPath>
</defs>
</svg>
